<svg width="16" height="16" viewBox="0 0 16 16" fill="none" xmlns="http://www.w3.org/2000/svg">
<path d="M16 0.5C16 0.367392 15.9473 0.240215 15.8536 0.146447C15.7598 0.0526784 15.6326 0 15.5 0L0.5 0C0.367392 0 0.240215 0.0526784 0.146447 0.146447C0.0526784 0.240215 0 0.367392 0 0.5L0 3.5C0.00278748 3.52195 0.00713176 3.54367 0.013 3.565C0.0157927 3.58596 0.020138 3.60668 0.026 3.627C0.0458489 3.71192 0.0875623 3.79018 0.147 3.854L5.854 9.561C5.94683 9.65513 5.99922 9.7818 6 9.914V14.5C6 14.8978 6.15804 15.2794 6.43934 15.5607C6.72064 15.842 7.10218 16 7.5 16H8.5C8.89782 16 9.27936 15.842 9.56066 15.5607C9.84196 15.2794 10 14.8978 10 14.5V9.914C10.0008 9.7818 10.0532 9.65513 10.146 9.561L15.853 3.854C15.9124 3.79018 15.9542 3.71192 15.974 3.627C15.9799 3.60668 15.9842 3.58596 15.987 3.565C15.9929 3.54367 15.9972 3.52195 16 3.5V0.5ZM1 1H15V3H1V1ZM9.439 8.854C9.29941 8.99291 9.18874 9.15811 9.11338 9.34005C9.03803 9.52199 8.99949 9.71707 9 9.914V14.5C9 14.6326 8.94732 14.7598 8.85355 14.8536C8.75979 14.9473 8.63261 15 8.5 15H7.5C7.36739 15 7.24021 14.9473 7.14645 14.8536C7.05268 14.7598 7 14.6326 7 14.5V9.914C7.00051 9.71707 6.96197 9.52199 6.88662 9.34005C6.81126 9.15811 6.70059 8.99291 6.561 8.854L1.707 4H14.293L9.439 8.854Z" fill="black"/>
</svg>
