<svg width="20" height="20" viewBox="0 0 20 20" fill="none" xmlns="http://www.w3.org/2000/svg">
<g clip-path="url(#clip0_439_3136)">
<path d="M17.4611 8.88867H5.55556V9.99978H17.4611C17.6085 9.99978 17.7498 9.94125 17.8539 9.83706C17.9581 9.73288 18.0167 9.59157 18.0167 9.44423C18.0167 9.29688 17.9581 9.15558 17.8539 9.05139C17.7498 8.9472 17.6085 8.88867 17.4611 8.88867Z" fill="black"/>
<path d="M17.4611 13.333H5.55556V14.4441H17.4611C17.6085 14.4441 17.7498 14.3856 17.8539 14.2814C17.9581 14.1772 18.0167 14.0359 18.0167 13.8886C18.0167 13.7412 17.9581 13.5999 17.8539 13.4957C17.7498 13.3915 17.6085 13.333 17.4611 13.333Z" fill="black"/>
<path d="M8.58333 5.55545H17.4722C17.6196 5.55545 17.7609 5.49692 17.8651 5.39273C17.9692 5.28854 18.0278 5.14723 18.0278 4.99989C18.0278 4.85255 17.9692 4.71124 17.8651 4.60705C17.7609 4.50287 17.6196 4.44434 17.4722 4.44434H9.69444L8.58333 5.55545Z" fill="black"/>
<path d="M9.72222 1.90044C9.6663 1.8439 9.5998 1.79893 9.5265 1.76809C9.4532 1.73725 9.37454 1.72115 9.29502 1.72071C9.2155 1.72027 9.13667 1.7355 9.06303 1.76552C8.98939 1.79555 8.92239 1.83978 8.86585 1.8957L8.86111 1.90044L4.38333 6.37822L2.50556 4.356C2.45088 4.29712 2.38512 4.2496 2.31206 4.21616C2.239 4.18272 2.16006 4.16401 2.07976 4.16111C1.99946 4.15821 1.91938 4.17116 1.84409 4.19924C1.76881 4.22731 1.69979 4.26996 1.641 4.32473C1.58221 4.3795 1.5348 4.44533 1.50147 4.51845C1.46815 4.59156 1.44957 4.67053 1.44679 4.75083C1.44401 4.83114 1.4571 4.9112 1.48529 4.98644C1.51349 5.06168 1.55624 5.13063 1.61111 5.18933L4.35556 8.13378L9.72222 2.77822C9.83862 2.66544 9.90545 2.51104 9.90801 2.34898C9.91057 2.18692 9.84865 2.03049 9.73587 1.91409L9.72222 1.90044Z" fill="#CEB386"/>
</g>
<defs>
<clipPath id="clip0_439_3136">
<rect width="20" height="20" fill="white"/>
</clipPath>
</defs>
</svg>
