<svg width="16" height="16" viewBox="0 0 16 16" fill="none" xmlns="http://www.w3.org/2000/svg">
<g clip-path="url(#clip0_439_2755)">
<path d="M9.74192 3.28033C9.82445 3.34997 9.92244 3.40522 10.0303 3.44291C10.1381 3.4806 10.2537 3.5 10.3704 3.5C10.4871 3.5 10.6027 3.4806 10.7106 3.44291C10.8184 3.40522 10.9164 3.34997 10.9989 3.28033L11.8519 2.56066V12.75C11.8519 12.9489 11.9456 13.1397 12.1123 13.2803C12.279 13.421 12.505 13.5 12.7408 13.5C12.9765 13.5 13.2026 13.421 13.3693 13.2803C13.536 13.1397 13.6297 12.9489 13.6297 12.75V2.56066L14.4827 3.28033C14.6498 3.41922 14.8752 3.49675 15.1098 3.49599C15.3444 3.49524 15.5691 3.41628 15.735 3.27631C15.9009 3.13635 15.9944 2.94674 15.9953 2.74881C15.9962 2.55088 15.9043 2.36068 15.7397 2.21967L13.3693 0.219669C13.2868 0.150026 13.1888 0.0947812 13.0809 0.0570903C12.9731 0.0193993 12.8575 0 12.7408 0C12.6241 0 12.5085 0.0193993 12.4007 0.0570903C12.2928 0.0947812 12.1948 0.150026 12.1123 0.219669L9.74192 2.21967C9.57522 2.36032 9.48157 2.55109 9.48157 2.75C9.48157 2.94891 9.57522 3.13968 9.74192 3.28033V3.28033Z" fill="#404044"/>
<path d="M4.14821 12.9393L5.00116 12.2197C5.08341 12.149 5.18146 12.0928 5.28963 12.0542C5.3978 12.0157 5.51395 11.9956 5.63137 11.9951C5.74879 11.9947 5.86515 12.0138 5.97374 12.0515C6.08232 12.0892 6.18098 12.1447 6.26401 12.2148C6.34704 12.2848 6.4128 12.3681 6.45749 12.4597C6.50217 12.5513 6.5249 12.6495 6.52436 12.7486C6.52382 12.8476 6.50002 12.9456 6.45434 13.0369C6.40866 13.1282 6.34199 13.2109 6.2582 13.2803L3.88783 15.2803C3.72113 15.421 3.49504 15.5 3.25929 15.5C3.02354 15.5 2.79745 15.421 2.63075 15.2803L0.26037 13.2803C0.0957527 13.1393 0.00387583 12.9491 0.00476717 12.7512C0.00565851 12.5532 0.0992458 12.3636 0.265129 12.2237C0.431011 12.0837 0.655739 12.0047 0.890324 12.004C1.12491 12.0033 1.35033 12.0808 1.51745 12.2197L2.37043 12.9393V2.75C2.37043 2.55109 2.46408 2.36032 2.63078 2.21967C2.79748 2.07902 3.02357 2 3.25932 2C3.49507 2 3.72116 2.07902 3.88786 2.21967C4.05456 2.36032 4.14821 2.55109 4.14821 2.75V12.9393Z" fill="#404044"/>
</g>
<defs>
<clipPath id="clip0_439_2755">
<rect width="16" height="15.5" fill="white"/>
</clipPath>
</defs>
</svg>
