<svg width="23" height="22" viewBox="0 0 23 22" fill="none" xmlns="http://www.w3.org/2000/svg">
<path d="M16.6262 9.91821e-05C20.3662 9.91821e-05 22.5002 2.1121 22.5002 5.8631V16.1371C22.5002 19.8661 20.3772 22.0001 16.6372 22.0001H6.36318C2.61218 22.0001 0.500183 19.8661 0.500183 16.1371V5.8631C0.500183 2.1121 2.61218 9.91821e-05 6.36318 9.91821e-05H16.6262ZM11.4892 6.0611C10.9832 6.0611 10.5762 6.4681 10.5762 6.9741V10.0761H7.46318C7.22118 10.0761 6.99018 10.1751 6.81418 10.3401C6.64918 10.5161 6.55018 10.746 6.55018 10.9891C6.55018 11.4951 6.95718 11.9021 7.46318 11.9131H10.5762V15.0261C10.5762 15.5321 10.9832 15.9391 11.4892 15.9391C11.9952 15.9391 12.4022 15.5321 12.4022 15.0261V11.9131H15.5262C16.0322 11.9021 16.4392 11.4951 16.4392 10.9891C16.4392 10.4831 16.0322 10.0761 15.5262 10.0761H12.4022V6.9741C12.4022 6.4681 11.9952 6.0611 11.4892 6.0611Z" fill="#CEB386"/>
</svg>
