<svg width="24" height="23" viewBox="0 0 24 23" fill="none" xmlns="http://www.w3.org/2000/svg">
<path d="M22.5 23C23.0523 23 23.5 22.5523 23.5 22C23.5 21.4477 23.0523 21 22.5 21V23ZM2.5 1C2.5 0.447715 2.05228 0 1.5 0C0.947715 0 0.5 0.447715 0.5 1H2.5ZM5.77893 21.1458L6.23292 20.2548H6.23292L5.77893 21.1458ZM2.35415 17.7211L1.46315 18.1751H1.46315L2.35415 17.7211ZM5.80001 12.2858C5.4056 12.6724 5.39925 13.3056 5.78584 13.7C6.17244 14.0944 6.80557 14.1007 7.19999 13.7142L5.80001 12.2858ZM12.0385 7.57143L12.7396 6.85836C12.3509 6.47621 11.7277 6.47573 11.3385 6.85727L12.0385 7.57143ZM15.9615 11.4286L15.2604 12.1416C15.6496 12.5242 16.2735 12.5242 16.6626 12.1416L15.9615 11.4286ZM22.5 5H23.5C23.5 4.44772 23.0523 4 22.5 4V5ZM21.5 8.85714C21.5 9.40943 21.9477 9.85714 22.5 9.85714C23.0523 9.85714 23.5 9.40943 23.5 8.85714H21.5ZM18.5769 4C18.0246 4 17.5769 4.44772 17.5769 5C17.5769 5.55228 18.0246 6 18.5769 6V4ZM22.5 21H14.0388V23H22.5V21ZM2.5 9.46122V1H0.5V9.46122H2.5ZM14.0388 21C11.8278 21 10.2297 20.9992 8.97306 20.8966C7.7281 20.7948 6.90664 20.5981 6.23292 20.2548L5.32494 22.0369C6.32759 22.5477 7.44156 22.7781 8.81019 22.8899C10.1672 23.0008 11.8608 23 14.0388 23V21ZM0.5 9.46122C0.5 11.6392 0.499222 13.3328 0.61009 14.6898C0.721912 16.0584 0.952269 17.1724 1.46315 18.1751L3.24516 17.2671C2.90188 16.5934 2.70516 15.7719 2.60345 14.5269C2.50078 13.2703 2.5 11.6722 2.5 9.46122H0.5ZM6.23292 20.2548C4.94651 19.5994 3.90062 18.5535 3.24516 17.2671L1.46315 18.1751C2.31035 19.8378 3.6622 21.1896 5.32494 22.0369L6.23292 20.2548ZM7.19999 13.7142L12.7384 8.28558L11.3385 6.85727L5.80001 12.2858L7.19999 13.7142ZM11.3374 8.2845L15.2604 12.1416L16.6626 10.7155L12.7396 6.85836L11.3374 8.2845ZM16.6626 12.1416L23.2011 5.71307L21.7989 4.28693L15.2604 10.7155L16.6626 12.1416ZM21.5 5V8.85714H23.5V5H21.5ZM22.5 4H18.5769V6H22.5V4Z" fill="#818493"/>
</svg>
