<svg width="20" height="21" viewBox="0 0 20 21" fill="none" xmlns="http://www.w3.org/2000/svg">
<path fill-rule="evenodd" clip-rule="evenodd" d="M11.431 13.9555C12.6057 13.9555 13.5618 14.9057 13.5618 16.0736V19.0773C13.5618 19.3283 13.7627 19.5294 14.0203 19.5353H15.8798C17.3452 19.5353 18.5364 18.3576 18.5364 16.9104V8.39141C18.5296 7.89339 18.2925 7.42467 17.8857 7.11316L11.4535 1.97869C10.5901 1.29416 9.38226 1.29416 8.51591 1.98065L2.12762 7.11121C1.70518 7.43248 1.46811 7.9012 1.46323 8.40801V16.9104C1.46323 18.3576 2.65445 19.5353 4.11982 19.5353H5.99689C6.26128 19.5353 6.47591 19.3253 6.47591 19.0675C6.47591 19.0109 6.48274 18.9543 6.49445 18.9006V16.0736C6.49445 14.9125 7.4447 13.9633 8.61055 13.9555H11.431ZM15.8798 21H14.0027C12.9276 20.9747 12.0984 20.13 12.0984 19.0773V16.0736C12.0984 15.7132 11.7988 15.4203 11.431 15.4203H8.61543C8.25543 15.4222 7.95787 15.7162 7.95787 16.0736V19.0675C7.95787 19.1408 7.94811 19.2111 7.92762 19.2775C7.82226 20.2442 6.99689 21 5.99689 21H4.11982C1.84762 21 -0.000183105 19.1652 -0.000183105 16.9104V8.40117C0.00957299 7.43053 0.456402 6.54191 1.22811 5.95698L7.60372 0.835206C9.00762 -0.27801 10.9637 -0.27801 12.3647 0.833253L18.7862 5.95991C19.5403 6.53507 19.9871 7.42174 19.9998 8.38067V16.9104C19.9998 19.1652 18.152 21 15.8798 21Z" fill="black"/>
</svg>
