<svg width="23" height="22" viewBox="0 0 23 22" fill="none" xmlns="http://www.w3.org/2000/svg">
<path fill-rule="evenodd" clip-rule="evenodd" d="M5.54487 12.4103C10.1355 12.4103 10.3397 13.9672 10.3397 17.2051C10.3397 18.8275 10.3397 19.9816 9.65831 20.8267C8.87421 21.8003 7.44703 22 5.54487 22C3.64272 22 2.21554 21.8003 1.43144 20.8267C0.75 19.9816 0.75 18.8286 0.75 17.2333L1.59615 17.2051H0.75C0.75 13.9672 0.954205 12.4103 5.54487 12.4103ZM17.9551 12.4103C22.5458 12.4103 22.75 13.9672 22.75 17.2051C22.75 18.8275 22.75 19.9816 22.0686 20.8267C21.2845 21.8003 19.8573 22 17.9551 22C16.053 22 14.6258 21.8003 13.8417 20.8267C13.1603 19.9816 13.1603 18.8286 13.1603 17.2333L14.0064 17.2051H13.1603C13.1603 13.9672 13.3645 12.4103 17.9551 12.4103ZM5.77746 14.1031L5.54487 14.1026C2.60141 14.1026 2.45047 14.3138 2.44273 16.7844L2.4432 17.7469C2.44855 18.7295 2.48599 19.4393 2.74805 19.7662C3.04703 20.1362 3.93492 20.3077 5.54487 20.3077C7.15482 20.3077 8.04272 20.1351 8.34169 19.765C8.64744 19.3848 8.64744 18.4823 8.64744 17.2322C8.64744 14.4115 8.64744 14.1163 5.77746 14.1031ZM18.1877 14.1031L17.9551 14.1026C15.0117 14.1026 14.8607 14.3138 14.853 16.7844L14.8535 17.7469C14.8588 18.7295 14.8962 19.4393 15.1583 19.7662C15.4573 20.1362 16.3452 20.3077 17.9551 20.3077C19.5651 20.3077 20.453 20.1351 20.7519 19.765C21.0577 19.3848 21.0577 18.4823 21.0577 17.2322C21.0577 14.4115 21.0577 14.1163 18.1877 14.1031ZM5.54487 0C10.1355 0 10.3397 1.55692 10.3397 4.79487C10.3397 6.41723 10.3397 7.57138 9.65831 8.41641C8.87421 9.39005 7.44703 9.58974 5.54487 9.58974C3.64272 9.58974 2.21554 9.39005 1.43144 8.41641C0.75 7.57138 0.75 6.41836 0.75 4.82308L1.59615 4.79487H0.75C0.75 1.55692 0.954205 0 5.54487 0ZM17.9551 0C22.5458 0 22.75 1.55692 22.75 4.79487C22.75 6.41723 22.75 7.57138 22.0686 8.41641C21.2845 9.39005 19.8573 9.58974 17.9551 9.58974C16.053 9.58974 14.6258 9.39005 13.8417 8.41641C13.1603 7.57138 13.1603 6.41836 13.1603 4.82308L14.0064 4.79487H13.1603C13.1603 1.55692 13.3645 0 17.9551 0ZM5.77746 1.69281L5.54487 1.69231C2.60141 1.69231 2.45047 1.90352 2.44273 4.37411L2.4432 5.33661C2.44855 6.31924 2.48599 7.02904 2.74805 7.3559C3.04703 7.72595 3.93492 7.89744 5.54487 7.89744C7.15482 7.89744 8.04272 7.72482 8.34169 7.35477C8.64744 6.97456 8.64744 6.072 8.64744 4.82195C8.64744 2.0012 8.64744 1.70609 5.77746 1.69281ZM18.1877 1.69281L17.9551 1.69231C15.0117 1.69231 14.8607 1.90352 14.853 4.37411L14.8535 5.33661C14.8588 6.31924 14.8962 7.02904 15.1583 7.3559C15.4573 7.72595 16.3452 7.89744 17.9551 7.89744C19.5651 7.89744 20.453 7.72482 20.7519 7.35477C21.0577 6.97456 21.0577 6.072 21.0577 4.82195C21.0577 2.0012 21.0577 1.70609 18.1877 1.69281Z" fill="#818493"/>
</svg>
