<svg width="26" height="26" viewBox="0 0 26 26" fill="none" xmlns="http://www.w3.org/2000/svg">
<path d="M17.5 14C16.1193 14 15 15.1193 15 16.5C15 17.8807 16.1193 19 17.5 19C18.8807 19 20 17.8807 20 16.5C20 15.1193 18.8807 14 17.5 14ZM17.5 14V7M8.5 12C7.11929 12 6 10.8807 6 9.5C6 8.11929 7.11929 7 8.5 7C9.88071 7 11 8.11929 11 9.5C11 10.8807 9.88071 12 8.5 12ZM8.5 12V19M13 25C10.2101 25 8.81513 25 7.67063 24.6933C4.5648 23.8611 2.13887 21.4352 1.30667 18.3294C1 17.1849 1 15.7899 1 13C1 10.2101 1 8.81513 1.30667 7.67063C2.13887 4.5648 4.5648 2.13887 7.67063 1.30667C8.81513 1 10.2101 1 13 1C15.7899 1 17.1849 1 18.3294 1.30667C21.4352 2.13887 23.8611 4.5648 24.6933 7.67063C25 8.81513 25 10.2101 25 13C25 15.7899 25 17.1849 24.6933 18.3294C23.8611 21.4352 21.4352 23.8611 18.3294 24.6933C17.1849 25 15.7899 25 13 25Z" stroke="#818493" stroke-width="2" stroke-linecap="round"/>
</svg>
