<svg width="23" height="22" viewBox="0 0 23 22" fill="none" xmlns="http://www.w3.org/2000/svg">
<path d="M20.0835 9.33366V18.667C20.0835 19.3742 19.8025 20.0525 19.3024 20.5526C18.8023 21.0527 18.124 21.3337 17.4168 21.3337H4.14065C3.43538 21.3337 2.75883 21.0543 2.25906 20.5567C1.75929 20.059 1.477 19.3837 1.47398 18.6784L1.41665 5.34509C1.41368 4.63783 1.69176 3.95837 2.18974 3.45614C2.68771 2.9539 3.36479 2.67004 4.07204 2.66699H13.4168" stroke="#404044" stroke-linecap="round" stroke-linejoin="round"/>
<path d="M19.4168 6.00033C20.8895 6.00033 22.0835 4.80642 22.0835 3.33366C22.0835 1.8609 20.8895 0.666992 19.4168 0.666992C17.944 0.666992 16.7501 1.8609 16.7501 3.33366C16.7501 4.80642 17.944 6.00033 19.4168 6.00033Z" fill="#CEB386" stroke="#CEB386" stroke-linecap="round" stroke-linejoin="round"/>
</svg>
