<svg width="28" height="30" viewBox="0 0 28 30" fill="none" xmlns="http://www.w3.org/2000/svg">
<g clip-path="url(#clip0_431_2198)">
<path d="M17.3939 10.5542L16.4812 11.5471L17.7982 11.8373L18.4604 13.0123L19.1435 11.8494L20.4656 11.5827L19.5708 10.5736L19.7256 9.23382L18.4894 9.77314L17.2631 9.2118L17.3939 10.5542Z" fill="#CEB386"/>
<path d="M23.8062 12.6619L22.9963 13.0152L22.1928 12.6474L22.2786 13.5269L21.6807 14.1774L22.5435 14.3675L22.9774 15.1373L23.4249 14.3754L24.2911 14.2006L23.7047 13.5396L23.8062 12.6619Z" fill="#CEB386"/>
<path d="M13.945 15.2614C12.7574 13.5965 12.0577 11.6335 11.9243 9.59287C11.7908 7.55223 12.229 5.51481 13.1897 3.70948C11.5074 3.97455 9.91009 4.6283 8.52473 5.6188C3.57899 9.14493 2.42818 16.0127 5.95431 20.9585C9.48044 25.9042 16.3482 27.055 21.294 23.5289C22.682 22.5421 23.8207 21.2451 24.6197 19.7412C22.5998 20.0608 20.5308 19.8109 18.6451 19.0196C16.7595 18.2282 15.1318 16.9268 13.945 15.2614Z" fill="#404044"/>
</g>
<defs>
<clipPath id="clip0_431_2198">
<rect width="19.9057" height="22" fill="white" transform="translate(0.386108 8.99902) rotate(-24)"/>
</clipPath>
</defs>
</svg>
