<svg width="17" height="20" viewBox="0 0 17 20" fill="none" xmlns="http://www.w3.org/2000/svg">
<g clip-path="url(#clip0_431_2207)">
<path d="M8.09919 0C3.63325 0 -6.57904e-05 3.63332 -6.57904e-05 8.09931C-0.00690223 9.92242 0.609275 11.6932 1.74639 13.1182C3.22578 14.9835 7.52778 19.4123 7.71027 19.5999L8.09919 20L8.48816 19.6C8.6706 19.4123 12.974 14.9825 14.4536 13.1166C15.59 11.6919 16.2056 9.92171 16.1985 8.09931C16.1985 3.63332 12.5652 0 8.09919 0ZM13.6036 12.4424C12.4124 13.9444 9.21364 17.2857 8.09924 18.4414C6.98496 17.2858 3.78737 13.9455 2.59649 12.444C1.61217 11.2104 1.07886 9.67749 1.08493 8.09931C1.08456 7.17795 1.26573 6.26554 1.61807 5.41421C1.97041 4.56288 2.48702 3.7893 3.13839 3.13767C3.78976 2.48604 4.56313 1.96913 5.41433 1.61646C6.26552 1.26378 7.17786 1.08226 8.09922 1.08226C9.02058 1.08226 9.93291 1.26378 10.7841 1.61646C11.6353 1.96913 12.4087 2.48604 13.06 3.13767C13.7114 3.7893 14.228 4.56288 14.5804 5.41421C14.9327 6.26554 15.1139 7.17795 15.1135 8.09931C15.1198 9.67677 14.5871 11.2091 13.6036 12.4424Z" fill="#404044"/>
<path d="M8.09932 3.21484C7.1511 3.21484 6.22418 3.49602 5.43577 4.02282C4.64736 4.54962 4.03286 5.29838 3.67 6.17442C3.30713 7.05045 3.21219 8.01442 3.39718 8.94442C3.58216 9.87441 4.03877 10.7287 4.70926 11.3992C5.37975 12.0696 6.23401 12.5263 7.164 12.7112C8.094 12.8962 9.05796 12.8013 9.934 12.4384C10.81 12.0756 11.5588 11.4611 12.0856 10.6726C12.6124 9.88424 12.8936 8.95732 12.8936 8.0091C12.8921 6.73803 12.3866 5.51943 11.4878 4.62065C10.589 3.72186 9.37039 3.21629 8.09932 3.21484ZM8.09932 11.7184C7.36569 11.7184 6.64854 11.5008 6.03856 11.0932C5.42857 10.6857 4.95315 10.1064 4.6724 9.42858C4.39165 8.7508 4.3182 8.00499 4.46132 7.28546C4.60444 6.56593 4.95772 5.90501 5.47647 5.38626C5.99522 4.86751 6.65615 4.51423 7.37567 4.37111C8.0952 4.22799 8.84101 4.30144 9.51879 4.58219C10.1966 4.86293 10.7759 5.33836 11.1835 5.94834C11.591 6.55833 11.8086 7.27548 11.8086 8.0091C11.8075 8.99252 11.4163 9.93534 10.7209 10.6307C10.0256 11.3261 9.08273 11.7173 8.09932 11.7184Z" fill="#404044"/>
<path d="M7.90068 8.37122L6.53836 7.28731L5.86279 8.13643L8.07021 9.89254L10.421 6.96664L9.5751 6.28711L7.90068 8.37122Z" fill="#CEB386"/>
</g>
<defs>
<clipPath id="clip0_431_2207">
<rect width="16.1986" height="20" fill="white"/>
</clipPath>
</defs>
</svg>
