<svg width="22" height="23" viewBox="0 0 22 23" fill="none" xmlns="http://www.w3.org/2000/svg">
<g clip-path="url(#clip0_431_2202)">
<path d="M16.994 5.10351C17.1003 5.24629 17.2587 5.34123 17.4347 5.36758C17.6107 5.39394 17.79 5.34958 17.9334 5.24419L20.1434 3.60144C20.2862 3.4952 20.3811 3.33677 20.4075 3.16077C20.4338 2.98476 20.3895 2.80548 20.2841 2.66207L20.275 2.64846C20.1688 2.50568 20.0103 2.41074 19.8343 2.38439C19.6583 2.35803 19.479 2.40239 19.3356 2.50778L17.1256 4.15053C16.9829 4.25677 16.8879 4.4152 16.8616 4.5912C16.8352 4.76721 16.8796 4.94649 16.985 5.0899L16.994 5.10351Z" fill="#CEB386"/>
<path d="M17.7248 0.12515C17.6499 0.0715812 17.5647 0.0340119 17.4747 0.0147834C17.3846 -0.00444515 17.2916 -0.00492105 17.2013 0.0133854C17.1111 0.0316918 17.0255 0.0683882 16.9501 0.121188C16.8746 0.173989 16.8109 0.241761 16.7627 0.320284L15.2879 2.70727C15.2416 2.78236 15.2105 2.86584 15.1965 2.95294C15.1825 3.04004 15.1858 3.12905 15.2062 3.21487C15.2266 3.3007 15.2637 3.38167 15.3154 3.45314C15.3671 3.52461 15.4324 3.58519 15.5076 3.63141C15.5827 3.67763 15.6662 3.70858 15.7534 3.7225C15.8405 3.73642 15.9295 3.73303 16.0153 3.71253C16.1011 3.69203 16.182 3.65482 16.2534 3.60302C16.3248 3.55122 16.3853 3.48585 16.4315 3.41066L17.9063 1.02367C17.9954 0.878737 18.0262 0.705416 17.9925 0.538665C17.9588 0.371914 17.8631 0.224142 17.7248 0.12515V0.12515Z" fill="#CEB386"/>
<path d="M18.7866 7.41761L21.5003 6.69153C21.5857 6.66877 21.6658 6.62937 21.7359 6.57561C21.8061 6.52185 21.865 6.45477 21.9092 6.37822C21.9534 6.30167 21.982 6.21715 21.9935 6.1295C22.005 6.04185 21.9991 5.9528 21.9761 5.86745C21.9531 5.78209 21.9136 5.70211 21.8596 5.63207C21.8057 5.56204 21.7384 5.50334 21.6618 5.45933C21.5851 5.41532 21.5005 5.38687 21.4129 5.3756C21.3252 5.36433 21.2361 5.37047 21.1508 5.39367L18.4371 6.11974C18.348 6.14336 18.2647 6.18507 18.1924 6.2423C18.1201 6.29952 18.0604 6.37103 18.017 6.45235C17.9736 6.53368 17.9474 6.62308 17.94 6.71498C17.9327 6.80688 17.9443 6.89931 17.9743 6.9865C18.0312 7.14696 18.1462 7.28025 18.2965 7.36007C18.4469 7.43988 18.6218 7.46041 18.7866 7.41761Z" fill="#CEB386"/>
<path d="M9.45647 1.1371C9.3662 1.1888 9.28746 1.25842 9.22509 1.34168C9.16273 1.42494 9.11806 1.52008 9.09383 1.62125C9.0696 1.72241 9.06632 1.82747 9.0842 1.92994C9.10209 2.03242 9.14074 2.13016 9.1978 2.21714C8.61694 5.55257 6.31618 8.37066 4.82772 9.89996C4.65098 9.7674 4.43602 9.69573 4.21509 9.69573C3.99416 9.69573 3.77919 9.7674 3.60246 9.89996L1.41515 11.5246C1.11857 11.7447 0.868281 12.0211 0.678571 12.338C0.488861 12.6549 0.363451 13.0061 0.309508 13.3714C0.255565 13.7368 0.274146 14.1092 0.36419 14.4674C0.454233 14.8256 0.613973 15.1626 0.834283 15.459L0.657302 15.2185L0.235269 15.5316C0.173707 15.5768 0.121754 15.6338 0.082432 15.6993C0.0431105 15.7648 0.0172061 15.8375 0.00622629 15.9131C-0.00475353 15.9887 -0.000589476 16.0657 0.0184761 16.1396C0.0375417 16.2136 0.0711281 16.283 0.117281 16.3439L1.41515 18.091C1.4608 18.1527 1.51823 18.2047 1.58411 18.2441C1.64999 18.2835 1.72301 18.3094 1.79897 18.3203C1.87492 18.3313 1.95229 18.3271 2.02662 18.308C2.10094 18.2889 2.17074 18.2553 2.23199 18.209L2.65402 17.8959L2.4135 17.5692C2.79141 18.0765 3.32931 18.4415 3.94029 18.6054C4.55128 18.7692 5.19966 18.7223 5.78069 18.4722L10.2052 22.148C10.2653 22.2012 10.3419 22.2321 10.4221 22.2354C10.5023 22.2387 10.5812 22.2142 10.6454 22.1662L10.7997 22.0527L12.4924 20.7957L13.1912 20.2784C13.2297 20.2496 13.2612 20.2125 13.2833 20.1698C13.3054 20.1272 13.3176 20.0801 13.3189 20.0321C13.3202 19.984 13.3106 19.9363 13.2909 19.8925C13.2711 19.8487 13.2417 19.81 13.2048 19.7792L12.27 19.0032C12.1921 18.9384 12.0946 18.9018 11.9933 18.8993C11.892 18.8969 11.7928 18.9287 11.7119 18.9896C11.5132 19.1372 11.2709 19.2143 11.0234 19.2085C10.776 19.2028 10.5375 19.1145 10.3459 18.9578L7.92716 16.9838L8.53979 16.5254C8.71646 16.393 8.84581 16.2072 8.90874 15.9955C8.97166 15.7838 8.96482 15.5576 8.88922 15.3501C10.7816 14.3653 14.1442 12.9722 17.5023 13.3806C17.5693 13.4606 17.652 13.526 17.7453 13.5728C17.8385 13.6196 17.9403 13.6468 18.0445 13.6527C18.1487 13.6587 18.2529 13.6432 18.3509 13.6074C18.4489 13.5715 18.5385 13.5159 18.6141 13.4441C18.9 13.1719 18.9136 12.7181 18.6777 12.4004L16.0093 8.81085C16.2949 8.36955 16.4389 7.85154 16.422 7.32615C16.4051 6.80076 16.2281 6.29308 15.9147 5.87108C15.6012 5.44908 15.1664 5.13289 14.6683 4.96486C14.1702 4.79683 13.6327 4.78497 13.1277 4.93086L10.4821 1.37308C10.2415 1.06449 9.80136 0.941968 9.45647 1.1371ZM5.24521 16.6797C5.14276 16.7561 5.02625 16.8116 4.90234 16.8429C4.77843 16.8743 4.64955 16.8808 4.52309 16.8623C4.39664 16.8437 4.27508 16.8004 4.16538 16.7348C4.05568 16.6693 3.96 16.5827 3.88381 16.4801L2.30913 14.3608C2.23271 14.2584 2.17725 14.1418 2.14592 14.0179C2.11459 13.894 2.10802 13.7651 2.12656 13.6387C2.14511 13.5122 2.18842 13.3907 2.25401 13.281C2.3196 13.1713 2.40618 13.0756 2.5088 12.9994L4.04718 11.8558L6.78359 15.5361L5.24521 16.6797Z" fill="#404044"/>
</g>
<defs>
<clipPath id="clip0_431_2202">
<rect width="22" height="22.2359" fill="white"/>
</clipPath>
</defs>
</svg>
