<svg width="20" height="24" viewBox="0 0 20 24" fill="none" xmlns="http://www.w3.org/2000/svg">
<path fill-rule="evenodd" clip-rule="evenodd" d="M7.91943 21.035C8.47952 21.6588 9.19856 22.0016 9.94462 22.0016H9.94571C10.695 22.0016 11.4173 21.6588 11.9785 21.0339C12.2791 20.7019 12.7916 20.6749 13.1235 20.9744C13.4565 21.2739 13.4836 21.7875 13.1841 22.1195C12.3104 23.0893 11.161 23.6235 9.94571 23.6235H9.94354C8.73145 23.6224 7.58424 23.0883 6.71383 22.1184C6.41432 21.7864 6.44135 21.2728 6.77438 20.9744C7.10741 20.6738 7.61992 20.7009 7.91943 21.035ZM9.99847 0.376465C14.8047 0.376465 18.0333 4.11978 18.0333 7.61548C18.0333 9.41361 18.4907 10.1759 18.9761 10.9847C19.4562 11.7826 20.0001 12.6887 20.0001 14.4014C19.6227 18.7773 15.0544 19.1341 9.99847 19.1341C4.94251 19.1341 0.373123 18.7773 7.5347e-05 14.4706C-0.00315398 12.6887 0.540718 11.7826 1.0208 10.9847L1.19028 10.6994C1.60757 9.9822 1.96365 9.20207 1.96365 7.61548C1.96365 4.11978 5.19229 0.376465 9.99847 0.376465ZM9.99847 1.99835C6.21948 1.99835 3.58554 4.95883 3.58554 7.61548C3.58554 9.86341 2.96165 10.9025 2.41021 11.8194C1.96798 12.5557 1.61873 13.1375 1.61873 14.4014C1.7993 16.4407 3.14547 17.5122 9.99847 17.5122C16.8136 17.5122 18.202 16.3931 18.3815 14.3312C18.3782 13.1375 18.029 12.5557 17.5867 11.8194C17.0353 10.9025 16.4114 9.86341 16.4114 7.61548C16.4114 4.95883 13.7775 1.99835 9.99847 1.99835Z" fill="black"/>
</svg>
