<svg width="22" height="22" viewBox="0 0 22 22" fill="none" xmlns="http://www.w3.org/2000/svg">
<path fill-rule="evenodd" clip-rule="evenodd" d="M10.5924 0.5C16.1573 0.5 20.6838 4.92666 20.6838 10.3688C20.6838 12.9364 19.6762 15.2781 18.0274 17.0356L21.2718 20.2018C21.5754 20.4987 21.5764 20.9791 21.2728 21.276C21.1215 21.426 20.9215 21.5 20.7225 21.5C20.5246 21.5 20.3256 21.426 20.1733 21.2781L16.8898 18.0759C15.1625 19.4287 12.9724 20.2386 10.5924 20.2386C5.02754 20.2386 0.5 15.8109 0.5 10.3688C0.5 4.92666 5.02754 0.5 10.5924 0.5ZM10.5924 2.02015C5.88455 2.02015 2.05443 5.76477 2.05443 10.3688C2.05443 14.9728 5.88455 18.7184 10.5924 18.7184C15.2992 18.7184 19.1293 14.9728 19.1293 10.3688C19.1293 5.76477 15.2992 2.02015 10.5924 2.02015Z" fill="black"/>
</svg>
