<svg width="16" height="20" viewBox="0 0 16 20" fill="none" xmlns="http://www.w3.org/2000/svg">
<g clip-path="url(#clip0_427_1299)">
<path d="M4.78162 5.17527L4.78162 17.0182L2.35861 14.5952C2.19479 14.4316 1.97268 14.3397 1.74113 14.3398C1.50958 14.3398 1.28754 14.4319 1.12381 14.5956C0.96009 14.7593 0.868088 14.9814 0.868034 15.2129C0.867981 15.4445 0.959879 15.6666 1.12353 15.8304L5.03751 19.7442C5.1186 19.8253 5.21488 19.8896 5.32084 19.9335C5.4268 19.9774 5.54036 20 5.65505 20C5.76974 20 5.88331 19.9774 5.98927 19.9335C6.09523 19.8896 6.1915 19.8253 6.27259 19.7442L10.1864 15.8304C10.3502 15.6666 10.4422 15.4445 10.4422 15.2129C10.4422 14.9812 10.3502 14.7591 10.1864 14.5953C10.0226 14.4315 9.80046 14.3395 9.56884 14.3395C9.33722 14.3395 9.11508 14.4315 8.9513 14.5953L6.52829 17.0183L6.52829 5.17536C6.52829 4.26602 6.88952 3.39391 7.53253 2.75091C8.17554 2.1079 9.04764 1.74666 9.95699 1.74666C10.8663 1.74666 11.7384 2.1079 12.3814 2.75091C13.0245 3.39391 13.3857 4.26602 13.3857 5.17536L13.3857 12.3796C13.3857 12.6112 13.4777 12.8333 13.6415 12.9971C13.8053 13.1609 14.0274 13.2529 14.259 13.2529C14.4906 13.2529 14.7128 13.1609 14.8766 12.9971C15.0403 12.8333 15.1324 12.6112 15.1324 12.3796L15.1324 5.17536C15.1324 3.80277 14.5871 2.48639 13.6166 1.51581C12.646 0.545235 11.3296 -3.62396e-05 9.95704 -4.95911e-05C8.58444 -6.29425e-05 7.26806 0.545185 6.29749 1.51575C5.32691 2.48631 4.78164 3.80268 4.78162 5.17527Z" fill="black"/>
</g>
<defs>
<clipPath id="clip0_427_1299">
<rect width="20" height="14.2647" fill="white" transform="matrix(0 -1 1 0 0.867676 20)"/>
</clipPath>
</defs>
</svg>
