<svg width="20" height="20" viewBox="0 0 20 20" fill="none" xmlns="http://www.w3.org/2000/svg">
<path fill-rule="evenodd" clip-rule="evenodd" d="M18.1735 6.66667C19.2694 7.48858 20 8.6758 20 10.0457C20 11.4155 19.2694 12.6941 18.1735 13.4247C18.3562 14.7032 18.0822 16.1644 17.0776 17.0776C16.0731 18.0822 14.7032 18.4475 13.4247 18.1735C12.6027 19.2694 11.4155 20 10.0457 20C8.58448 20 7.39726 19.2694 6.66667 18.1735C5.38813 18.3562 3.92694 18.0822 2.92237 17.0776C1.91781 16.0731 1.55251 14.7032 1.82648 13.3333C0.730594 12.5114 0 11.3242 0 9.95434C0 8.58447 0.730594 7.30594 1.82648 6.57534C1.64384 5.2968 1.91781 3.83562 2.92237 2.83105C3.83562 1.91781 5.20548 1.64384 6.57534 1.82648C7.30594 0.730594 8.58447 0 9.95434 0C11.3242 0 12.6027 0.730594 13.3333 1.82648C14.6119 1.64384 16.0731 1.91781 16.9863 2.92237C18.0822 3.92694 18.3562 5.2968 18.1735 6.66667ZM14.1553 6.57534C14.5205 6.84932 14.7032 7.39726 14.3379 7.85388L9.77169 14.2466C9.49772 14.6119 8.94977 14.7945 8.49315 14.4292L8.40183 14.3379L5.6621 11.5982C5.2968 11.2329 5.2968 10.6849 5.6621 10.3196C6.0274 9.95434 6.57534 9.95434 6.94064 10.3196L8.94977 12.3288L12.8767 6.84932C13.1507 6.39269 13.6986 6.30137 14.1553 6.57534Z" fill="#CEB386"/>
</svg>
